<?xml version="1.0" encoding="utf-8"?>
<!-- Generator: Adobe Illustrator 26.1.0, SVG Export Plug-In . SVG Version: 6.00 Build 0)  -->
<svg version="1.1" id="Layer_1" xmlns="http://www.w3.org/2000/svg" xmlns:xlink="http://www.w3.org/1999/xlink" x="0px" y="0px"
	 viewBox="0 0 1500 1000" style="enable-background:new 0 0 1500 1000;" xml:space="preserve">
<style type="text/css">
	.st0{fill:#FFFFFF;}
</style>
<g>
	<g>
		<g>
			<g>
				<path class="st0" d="M847.83,548.45c3.43-3.51,7.84-5.26,13.22-5.26c3.17,0,6.02,0.64,8.54,1.93c2.52,1.29,4.58,3.07,6.19,5.35
					l-5.88,4.31c-2.09-2.91-5.04-4.37-8.85-4.37c-3.32,0-6.01,1.07-8.06,3.22c-2.05,2.15-3.08,4.88-3.08,8.21
					c0,3.32,1.03,6.06,3.08,8.21c2.05,2.15,4.74,3.22,8.06,3.22c2.24,0,4.23-0.63,5.97-1.9c1.74-1.27,2.83-3.02,3.28-5.27h-9.69
					v-6.61h17.87l0.06,3.19c-0.19,5.27-1.85,9.55-4.98,12.86s-7.3,4.96-12.49,4.96c-5.38,0-9.78-1.75-13.22-5.26
					c-3.44-3.51-5.15-7.97-5.15-13.39S844.39,551.96,847.83,548.45z"/>
				<path class="st0" d="M889.73,580.04v-36.41h17.48c2.95,0,5.54,1.07,7.76,3.22c2.22,2.15,3.33,5.07,3.33,8.77
					c0,2.87-0.7,5.29-2.1,7.25c-1.4,1.96-3.2,3.33-5.41,4.12l8.23,13.05h-8.35l-7.84-12.44h-5.88v12.44H889.73z M906.03,560.55
					c1.38,0,2.56-0.46,3.53-1.37c0.97-0.91,1.46-2.1,1.46-3.56c0-1.49-0.49-2.7-1.46-3.61c-0.97-0.91-2.15-1.37-3.53-1.37h-9.07
					v9.92H906.03z"/>
				<path class="st0" d="M933.7,548.45c3.43-3.51,7.84-5.26,13.22-5.26c5.38,0,9.77,1.75,13.17,5.26c3.4,3.51,5.1,7.97,5.1,13.39
					s-1.7,9.88-5.1,13.39c-3.4,3.51-7.79,5.26-13.17,5.26c-5.38,0-9.78-1.75-13.22-5.26c-3.44-3.51-5.15-7.97-5.15-13.39
					S930.27,551.96,933.7,548.45z M935.78,561.83c0,3.32,1.03,6.06,3.08,8.21c2.05,2.15,4.74,3.22,8.06,3.22
					c3.29,0,5.94-1.06,7.96-3.19c2.02-2.13,3.02-4.87,3.02-8.23c0-3.36-1.01-6.11-3.02-8.23c-2.02-2.13-4.67-3.19-7.96-3.19
					c-3.32,0-6.01,1.07-8.06,3.22C936.8,555.78,935.78,558.51,935.78,561.83z"/>
				<path class="st0" d="M983.33,543.63v22.74c0,2.39,0.64,4.16,1.93,5.32c1.29,1.16,2.94,1.74,4.96,1.74
					c2.02,0,3.67-0.58,4.96-1.74c1.29-1.16,1.93-2.93,1.93-5.32v-22.74h7.23v23.53c0,3.77-1.25,6.93-3.75,9.47
					c-2.54,2.58-5.99,3.86-10.36,3.86c-4.37,0-7.81-1.28-10.33-3.84c-2.52-2.56-3.78-5.72-3.78-9.49v-23.53H983.33z"/>
				<path class="st0" d="M1016.1,580.04v-36.41h16.97c2.95,0,5.54,1.07,7.76,3.22c2.22,2.15,3.33,5.07,3.33,8.77
					s-1.11,6.62-3.33,8.77s-4.81,3.22-7.76,3.22h-9.75v12.44H1016.1z M1023.33,560.55h8.46c1.42,0,2.63-0.46,3.64-1.37
					c1.01-0.91,1.51-2.1,1.51-3.56c0-1.49-0.5-2.7-1.48-3.61c-0.99-0.91-2.18-1.37-3.56-1.37h-8.57V560.55z"/>
			</g>
		</g>
		<g>
			<g>
				<path class="st0" d="M720.46,530.68h-15.72l-7.18-14.04l-17.12-33.63l-17.12,33.63l-7.18,14.04h-15.72l7.14-14.04l32.88-64.5
					l32.88,64.5L720.46,530.68z"/>
				<path class="st0" d="M814.16,452.18l-30.41,39.36l30.27,39.18h-17.68l-21.41-27.75l-21.41,27.75h-17.68l30.22-39.18
					l-30.41-39.41h17.68l21.59,27.98l21.59-27.98h17.63V452.18z M735.67,530.73h0.19l-0.19,0.23V530.73z M814.16,530.91l-0.14-0.19
					h0.14V530.91z"/>
				<path class="st0" d="M833.84,530.65v-78.5h14.01v78.5H833.84z"/>
				<path class="st0" d="M945.99,491.41c0,21.68-17.57,39.25-39.25,39.25c-21.67,0-39.25-17.58-39.25-39.25
					c0-21.68,17.57-39.25,39.25-39.25C928.42,452.16,945.99,469.73,945.99,491.41z M932,491.4c0-13.93-11.33-25.26-25.26-25.26
					c-13.93,0-25.25,11.33-25.25,25.26s11.33,25.26,25.25,25.26C920.67,516.66,932,505.33,932,491.4z"/>
				<path class="st0" d="M1044.2,452.14v78.54h-14.04v-50l-13.76,10.59l-11.47,8.86l-11.47-8.86l-13.76-10.59v50h-14.04v-78.54
					l14.04,10.82l25.23,19.45l25.23-19.45L1044.2,452.14z"/>
			</g>
		</g>
	</g>
	<polygon class="st0" points="578.65,569.54 608.68,569.54 595.05,542.72 532.24,419.51 469.43,542.72 455.8,569.54 485.82,569.54 
		513.67,543.47 550.81,543.47 	"/>
</g>
</svg>
